<svg width="50" viewBox="0 0 115 115" fill="none" xmlns="http://www.w3.org/2000/svg">
<g clip-path="url(#clip0)">
<path d="M23.4551 86.4447C10.9047 65.5263 24 46 24 46C27.4084 76.1809 34.6987 89.6646 58 106C58 106 36.0055 107.363 23.4551 86.4447Z" fill="#E53E3E"/>
<circle cx="21" cy="90" r="14" transform="rotate(-180 21 90)" fill="#E53E3E"/>
<path d="M58.1104 26.0042C82.6144 25.7686 92.8875 46.8713 92.8875 46.8713C64.9953 34.8747 49.8857 34.1129 23.8969 45.6275C23.8969 45.6275 33.6065 26.2398 58.1104 26.0042Z" fill="#3182CE"/>
<circle cx="58" cy="21" r="14" transform="rotate(-180 58 21)" fill="#3182CE"/>
<path d="M92.5459 86.1827C80.3972 107.3 58 106 58 106C82.0789 87.9809 89.9129 75.1549 93.3835 47.2309C93.3835 47.2309 104.695 65.0656 92.5459 86.1827Z" fill="#38A169"/>
<circle cx="95" cy="92" r="14" transform="rotate(-180 95 92)" fill="#38A169"/>
<mask id="path-7-inside-1" fill="white">
<path d="M59.0864 73.0116C60.0498 88.9462 59.0393 90.406 58.0494 106.015L68.0397 102.762L59.0864 73.0116Z"/>
</mask>
<path d="M59.0864 73.0116C60.0498 88.9462 59.0393 90.406 58.0494 106.015L68.0397 102.762L59.0864 73.0116Z" fill="#38A169"/>
<path d="M58.0494 106.015L57.5504 105.983L57.5038 106.718L58.2042 106.49L58.0494 106.015ZM59.0864 73.0116L59.5651 72.8675C59.492 72.6245 59.2485 72.4749 58.9986 72.5194C58.7488 72.5639 58.572 72.7885 58.5873 73.0418L59.0864 73.0116ZM68.0397 102.762L68.1945 103.238C68.4529 103.154 68.5968 102.878 68.5185 102.618L68.0397 102.762ZM58.5484 106.047C59.536 90.4736 60.5514 88.9572 59.5854 72.9814L58.5873 73.0418C59.5482 88.9353 58.5426 90.3384 57.5504 105.983L58.5484 106.047ZM58.6076 73.1557L67.5609 102.906L68.5185 102.618L59.5651 72.8675L58.6076 73.1557ZM67.8849 102.287L57.8946 105.539L58.2042 106.49L68.1945 103.238L67.8849 102.287Z" fill="#38A169" mask="url(#path-7-inside-1)"/>
<mask id="path-9-inside-2" fill="white">
<path d="M52.2876 63.5111C37.9188 56.5559 37.1399 54.9605 24.0108 46.4609L21.9601 56.7653L52.2876 63.5111Z"/>
</mask>
<path d="M52.2876 63.5111C37.9188 56.5559 37.1399 54.9605 24.0108 46.4609L21.9601 56.7653L52.2876 63.5111Z" fill="#E53E3E"/>
<path d="M24.0108 46.4609L24.2825 46.0412L23.6642 45.6409L23.5204 46.3633L24.0108 46.4609ZM52.2876 63.5111L52.1791 63.9992C52.4268 64.0543 52.6765 63.9151 52.7599 63.6755C52.8433 63.4358 52.7339 63.1717 52.5055 63.0611L52.2876 63.5111ZM21.9601 56.7653L21.4697 56.6677C21.4167 56.9343 21.5863 57.1944 21.8515 57.2534L21.9601 56.7653ZM23.7391 46.8807C36.838 55.3606 37.6638 56.988 52.0698 63.9612L52.5055 63.0611C38.1737 56.1238 37.4419 54.5603 24.2825 46.0412L23.7391 46.8807ZM52.3962 63.0231L22.0687 56.2772L21.8515 57.2534L52.1791 63.9992L52.3962 63.0231ZM22.4505 56.8629L24.5012 46.5585L23.5204 46.3633L21.4697 56.6677L22.4505 56.8629Z" fill="#E53E3E" mask="url(#path-9-inside-2)"/>
<mask id="path-11-inside-3" fill="white">
<path d="M64.6104 63.8907C77.4711 54.4332 79.2456 54.4897 92.8928 46.8497L84.7389 40.224L64.6104 63.8907Z"/>
</mask>
<path d="M64.6104 63.8907C77.4711 54.4332 79.2456 54.4897 92.8928 46.8497L84.7389 40.224L64.6104 63.8907Z" fill="#3182CE"/>
<path d="M92.8928 46.8497L93.1371 47.286L93.7798 46.9261L93.2081 46.4616L92.8928 46.8497ZM64.6104 63.8907L64.2296 63.5668C64.0651 63.7601 64.0716 64.0459 64.2446 64.2315C64.4176 64.4172 64.7022 64.4438 64.9066 64.2935L64.6104 63.8907ZM84.7389 40.224L85.0542 39.836C84.8433 39.6646 84.5341 39.6931 84.358 39.9001L84.7389 40.224ZM92.6486 46.4134C79.0328 54.0358 77.208 54.006 64.3142 63.4879L64.9066 64.2935C77.7341 54.8604 79.4584 54.9436 93.1371 47.286L92.6486 46.4134ZM64.9913 64.2146L85.1198 40.548L84.358 39.9001L64.2296 63.5668L64.9913 64.2146ZM84.4236 40.6121L92.5775 47.2377L93.2081 46.4616L85.0542 39.836L84.4236 40.6121Z" fill="#3182CE" mask="url(#path-11-inside-3)"/>
</g>
<defs>
<clipPath id="clip0">
<rect width="115" height="115" fill="white" transform="translate(115 115) rotate(-180)"/>
</clipPath>
</defs>
</svg>
